<?xml version="1.0" encoding="utf-8"?>
<!-- Generator: Adobe Illustrator 23.0.3, SVG Export Plug-In . SVG Version: 6.00 Build 0)  -->
<svg version="1.1" id="Layer_1" xmlns="http://www.w3.org/2000/svg" xmlns:xlink="http://www.w3.org/1999/xlink" x="0px" y="0px"
	 viewBox="0 0 128 128" style="enable-background:new 0 0 128 128;" xml:space="preserve">
<style type="text/css">
	.st0{fill:#E05C22;}
	.st1{fill:#666666;}
	.st2{fill:#545454;}
</style>
<g>
	<path class="st0" d="M12.5,109.3c0,7,23.1,12.7,51.5,12.7s51.5-5.7,51.5-12.7V18.7h-103V109.3z"/>
	<ellipse class="st1" cx="64" cy="18.7" rx="51.5" ry="12.7"/>
	<ellipse class="st2" cx="64" cy="20.7" rx="50.9" ry="10.7"/>
	<g>
		<path d="M17.4,69.2c0.5,0.3,1.4,0.7,2.3,0.7c1.2,0,1.8-0.6,1.8-1.4c0-0.8-0.5-1.3-1.8-1.7c-1.7-0.6-2.5-1.5-2.5-2.7
			c0-1.5,1.2-2.8,3.3-2.8c1,0,1.8,0.3,2.3,0.6l-0.4,1.2c-0.4-0.2-1.1-0.5-1.9-0.5c-1,0-1.6,0.6-1.6,1.3c0,0.8,0.6,1.1,1.8,1.6
			c1.6,0.6,2.5,1.4,2.5,2.8c0,1.7-1.3,2.8-3.5,2.8c-1,0-2-0.3-2.7-0.7L17.4,69.2z"/>
		<path d="M25.4,64.6c0-1.2,0-2.2-0.1-3.1h1.5l0.1,1.6h0c0.7-1.2,1.8-1.8,3.4-1.8c2.3,0,4,1.9,4,4.8c0,3.4-2.1,5.1-4.3,5.1
			c-1.2,0-2.3-0.5-2.9-1.5h0v5.1h-1.7V64.6z M27.1,67.1c0,0.3,0,0.5,0.1,0.7c0.3,1.2,1.3,2,2.6,2c1.8,0,2.9-1.5,2.9-3.6
			c0-1.9-1-3.5-2.8-3.5c-1.2,0-2.3,0.8-2.6,2.1c-0.1,0.2-0.1,0.5-0.1,0.7V67.1z"/>
		<path d="M43.1,68.7c0,0.8,0,1.6,0.2,2.3h-1.6l-0.1-1.2h-0.1c-0.5,0.7-1.5,1.4-2.9,1.4c-1.9,0-2.9-1.3-2.9-2.7c0-2.3,2-3.5,5.7-3.5
			v-0.2c0-0.8-0.2-2.2-2.1-2.2c-0.9,0-1.8,0.3-2.5,0.7l-0.4-1.1c0.8-0.5,1.9-0.8,3.1-0.8c2.9,0,3.6,2,3.6,3.9V68.7z M41.4,66.2
			c-1.9,0-4,0.3-4,2.1c0,1.1,0.7,1.6,1.6,1.6c1.2,0,2-0.8,2.3-1.6c0.1-0.2,0.1-0.4,0.1-0.5V66.2z"/>
		<path d="M53.9,69.6c0,2.2-0.4,3.5-1.3,4.3c-0.9,0.9-2.2,1.1-3.4,1.1c-1.1,0-2.4-0.3-3.1-0.8l0.4-1.3c0.6,0.4,1.6,0.7,2.8,0.7
			c1.8,0,3-0.9,3-3.3v-1.1h0c-0.5,0.9-1.5,1.6-3,1.6c-2.3,0-4-2-4-4.6c0-3.2,2.1-5,4.2-5c1.6,0,2.5,0.9,2.9,1.6h0l0.1-1.4H54
			c0,0.7-0.1,1.4-0.1,2.6V69.6z M52.2,65.3c0-0.3,0-0.5-0.1-0.8c-0.3-1-1.1-1.8-2.4-1.8c-1.6,0-2.8,1.4-2.8,3.6
			c0,1.9,0.9,3.4,2.8,3.4c1.1,0,2-0.7,2.4-1.8c0.1-0.3,0.1-0.6,0.1-0.9V65.3z"/>
		<path d="M56.7,57.1h1.7V63h0c0.3-0.5,0.7-0.9,1.2-1.2c0.5-0.3,1.1-0.5,1.8-0.5c1.3,0,3.3,0.8,3.3,4V71h-1.7v-5.4
			c0-1.5-0.6-2.8-2.2-2.8c-1.1,0-2,0.8-2.3,1.7c-0.1,0.2-0.1,0.5-0.1,0.8V71h-1.7V57.1z"/>
		<path d="M68.5,66.6c0,2.3,1.5,3.3,3.2,3.3c1.2,0,2-0.2,2.6-0.5l0.3,1.2c-0.6,0.3-1.6,0.6-3.1,0.6c-2.9,0-4.6-1.9-4.6-4.8
			c0-2.8,1.7-5.1,4.4-5.1c3.1,0,3.9,2.7,3.9,4.4c0,0.4,0,0.6-0.1,0.8H68.5z M73.5,65.3c0-1.1-0.4-2.8-2.4-2.8
			c-1.7,0-2.5,1.6-2.6,2.8H73.5z"/>
		<path d="M79.4,59.3v2.3h2.5v1.3h-2.5v5.1c0,1.2,0.3,1.8,1.3,1.8c0.5,0,0.7,0,1-0.1l0.1,1.3c-0.3,0.1-0.9,0.3-1.5,0.3
			c-0.8,0-1.4-0.3-1.9-0.7c-0.5-0.5-0.7-1.3-0.7-2.5v-5.1h-1.5v-1.3h1.5v-1.7L79.4,59.3z"/>
		<path d="M85.8,59.3v2.3h2.5v1.3h-2.5v5.1c0,1.2,0.3,1.8,1.3,1.8c0.5,0,0.7,0,1-0.1l0.1,1.3c-0.3,0.1-0.9,0.3-1.5,0.3
			c-0.8,0-1.4-0.3-1.9-0.7c-0.5-0.5-0.7-1.3-0.7-2.5v-5.1h-1.5v-1.3h1.5v-1.7L85.8,59.3z"/>
		<path d="M92.1,58.9c0,0.6-0.4,1.1-1.1,1.1c-0.6,0-1-0.5-1-1.1c0-0.6,0.4-1.1,1.1-1.1C91.7,57.8,92.1,58.3,92.1,58.9z M90.2,71
			v-9.4h1.7V71H90.2z"/>
		<path d="M103.3,66.2c0,3.5-2.4,5-4.7,5c-2.6,0-4.5-1.9-4.5-4.9c0-3.2,2.1-5,4.7-5C101.5,61.3,103.3,63.3,103.3,66.2z M95.8,66.3
			c0,2.1,1.2,3.6,2.9,3.6c1.6,0,2.9-1.5,2.9-3.7c0-1.6-0.8-3.6-2.8-3.6C96.7,62.6,95.8,64.5,95.8,66.3z"/>
		<path d="M105.2,69.2c0.5,0.3,1.4,0.7,2.3,0.7c1.2,0,1.8-0.6,1.8-1.4c0-0.8-0.5-1.3-1.8-1.7c-1.7-0.6-2.5-1.5-2.5-2.7
			c0-1.5,1.2-2.8,3.3-2.8c1,0,1.8,0.3,2.3,0.6l-0.4,1.2c-0.4-0.2-1.1-0.5-1.9-0.5c-1,0-1.6,0.6-1.6,1.3c0,0.8,0.6,1.1,1.8,1.6
			c1.6,0.6,2.5,1.4,2.5,2.8c0,1.7-1.3,2.8-3.5,2.8c-1,0-2-0.3-2.7-0.7L105.2,69.2z"/>
	</g>
</g>
</svg>
