<?xml version="1.0" encoding="utf-8"?>
<!-- Generator: Adobe Illustrator 23.0.3, SVG Export Plug-In . SVG Version: 6.00 Build 0)  -->
<svg version="1.1" id="Layer_1" xmlns="http://www.w3.org/2000/svg" xmlns:xlink="http://www.w3.org/1999/xlink" x="0px" y="0px"
	 viewBox="0 0 61 128" style="enable-background:new 0 0 61 128;" xml:space="preserve">
<style type="text/css">
	.st0{fill:#141414;}
</style>
<path class="st0" d="M56.9,109.3L34.1,86.5c0,0-0.1,0-0.1-0.1V56.6h19.1c1.5,0,2.7-1.2,2.7-2.7c0-1.5-1.2-2.7-2.7-2.7H34v-5.8
	c9.3-1.7,16.4-9.9,16.4-19.7c0-11.1-9-20.1-20.1-20.1s-20.1,9-20.1,20.1c0,10.5,8,19,18.2,20v5.6H11.2c-1.5,0-2.7,1.2-2.7,2.7
	c0,1.5,1.2,2.7,2.7,2.7h17.3v30.1c0,0.2,0,0.4,0.1,0.6L6.6,109.3c-1.1,1.1-1.1,2.8,0,3.9c0.5,0.5,1.2,0.8,1.9,0.8s1.4-0.3,1.9-0.8
	l21.3-21.3l21.3,21.3c0.5,0.5,1.2,0.8,1.9,0.8s1.4-0.3,1.9-0.8C58,112.1,58,110.4,56.9,109.3z M28,34.5c-0.8,0-1.5-0.7-1.5-1.5V14
	c0-0.8,0.7-1.5,1.5-1.5s1.5,0.7,1.5,1.5v17.5h7c0.8,0,1.5,0.7,1.5,1.5s-0.7,1.5-1.5,1.5H28z"/>
</svg>
